<mxfile host="app.diagrams.net" modified="2023-12-06T14:43:51.960Z" agent="Mozilla/5.0 (Windows NT 10.0; Win64; x64) AppleWebKit/537.36 (KHTML, like Gecko) Chrome/119.0.0.0 Safari/537.36" version="22.1.5" etag="3Dao15ScQV5e3aSpJk4w" type="device">
  <diagram id="c-b-QUSnpJKAsR7kfI_r" name="Page-1">
    <mxGraphModel dx="882" dy="578" grid="1" gridSize="10" guides="1" tooltips="1" connect="1" arrows="1" fold="1" page="1" pageScale="1" pageWidth="850" pageHeight="1100" math="0" shadow="0">
      <root>
        <mxCell id="0" />
        <mxCell id="1" parent="0" />
        <mxCell id="w9Nn68UeluNYY8GW7t37-7" style="edgeStyle=orthogonalEdgeStyle;rounded=0;orthogonalLoop=1;jettySize=auto;html=1;exitX=1;exitY=0.5;exitDx=0;exitDy=0;entryX=0;entryY=0.5;entryDx=0;entryDy=0;" edge="1" parent="1" source="w9Nn68UeluNYY8GW7t37-1" target="w9Nn68UeluNYY8GW7t37-2">
          <mxGeometry relative="1" as="geometry" />
        </mxCell>
        <mxCell id="w9Nn68UeluNYY8GW7t37-1" value="Analytics log" style="rounded=1;whiteSpace=wrap;html=1;" vertex="1" parent="1">
          <mxGeometry x="80" y="40" width="120" height="60" as="geometry" />
        </mxCell>
        <mxCell id="w9Nn68UeluNYY8GW7t37-8" style="edgeStyle=orthogonalEdgeStyle;rounded=0;orthogonalLoop=1;jettySize=auto;html=1;exitX=1;exitY=0.5;exitDx=0;exitDy=0;" edge="1" parent="1" source="w9Nn68UeluNYY8GW7t37-2" target="w9Nn68UeluNYY8GW7t37-3">
          <mxGeometry relative="1" as="geometry" />
        </mxCell>
        <mxCell id="w9Nn68UeluNYY8GW7t37-2" value="Aggregators" style="rounded=1;whiteSpace=wrap;html=1;" vertex="1" parent="1">
          <mxGeometry x="280" y="40" width="120" height="60" as="geometry" />
        </mxCell>
        <mxCell id="w9Nn68UeluNYY8GW7t37-9" style="edgeStyle=orthogonalEdgeStyle;rounded=0;orthogonalLoop=1;jettySize=auto;html=1;exitX=1;exitY=0.5;exitDx=0;exitDy=0;" edge="1" parent="1" source="w9Nn68UeluNYY8GW7t37-3" target="w9Nn68UeluNYY8GW7t37-4">
          <mxGeometry relative="1" as="geometry" />
        </mxCell>
        <mxCell id="w9Nn68UeluNYY8GW7t37-3" value="Aggregated data" style="rounded=1;whiteSpace=wrap;html=1;" vertex="1" parent="1">
          <mxGeometry x="480" y="40" width="120" height="60" as="geometry" />
        </mxCell>
        <mxCell id="w9Nn68UeluNYY8GW7t37-10" style="edgeStyle=orthogonalEdgeStyle;rounded=0;orthogonalLoop=1;jettySize=auto;html=1;exitX=0.5;exitY=1;exitDx=0;exitDy=0;" edge="1" parent="1" source="w9Nn68UeluNYY8GW7t37-4" target="w9Nn68UeluNYY8GW7t37-5">
          <mxGeometry relative="1" as="geometry" />
        </mxCell>
        <mxCell id="w9Nn68UeluNYY8GW7t37-4" value="Workers" style="rounded=1;whiteSpace=wrap;html=1;" vertex="1" parent="1">
          <mxGeometry x="680" y="40" width="120" height="60" as="geometry" />
        </mxCell>
        <mxCell id="w9Nn68UeluNYY8GW7t37-11" style="edgeStyle=orthogonalEdgeStyle;rounded=0;orthogonalLoop=1;jettySize=auto;html=1;exitX=0;exitY=0.5;exitDx=0;exitDy=0;entryX=1;entryY=0.5;entryDx=0;entryDy=0;" edge="1" parent="1" source="w9Nn68UeluNYY8GW7t37-5" target="w9Nn68UeluNYY8GW7t37-6">
          <mxGeometry relative="1" as="geometry" />
        </mxCell>
        <mxCell id="w9Nn68UeluNYY8GW7t37-5" value="Trie DB" style="rounded=1;whiteSpace=wrap;html=1;" vertex="1" parent="1">
          <mxGeometry x="680" y="160" width="120" height="60" as="geometry" />
        </mxCell>
        <mxCell id="w9Nn68UeluNYY8GW7t37-6" value="Trie cache" style="rounded=1;whiteSpace=wrap;html=1;" vertex="1" parent="1">
          <mxGeometry x="480" y="160" width="120" height="60" as="geometry" />
        </mxCell>
        <mxCell id="w9Nn68UeluNYY8GW7t37-12" value="Update weekly" style="text;html=1;strokeColor=none;fillColor=none;align=center;verticalAlign=middle;whiteSpace=wrap;rounded=0;" vertex="1" parent="1">
          <mxGeometry x="620" y="120" width="120" height="30" as="geometry" />
        </mxCell>
        <mxCell id="w9Nn68UeluNYY8GW7t37-14" value="Weekly snapshot of DB" style="text;html=1;strokeColor=none;fillColor=none;align=center;verticalAlign=middle;whiteSpace=wrap;rounded=0;" vertex="1" parent="1">
          <mxGeometry x="560" y="220" width="160" height="30" as="geometry" />
        </mxCell>
      </root>
    </mxGraphModel>
  </diagram>
</mxfile>
